<?xml version="1.0" standalone="no"?>
<!DOCTYPE svg PUBLIC "-//W3C//DTD SVG 20010904//EN"
 "http://www.w3.org/TR/2001/REC-SVG-20010904/DTD/svg10.dtd">
<svg version="1.0" xmlns="http://www.w3.org/2000/svg"
 width="200.000000pt" height="200.000000pt" viewBox="0 0 200.000000 200.000000"
 preserveAspectRatio="xMidYMid meet">
<metadata>
Created by potrace 1.11, written by Peter Selinger 2001-2013
</metadata>
<g transform="translate(0.000000,200.000000) scale(0.100000,-0.100000)"
fill="#000000" stroke="none">
<path d="M1456 1643 c-4 -5 -18 -8 -29 -8 -17 0 -21 -5 -20 -22 2 -18 -2 -22
-20 -20 -16 1 -22 -3 -22 -18 0 -13 -7 -20 -20 -20 -15 0 -20 -7 -21 -33 -1
-27 -26 -56 -170 -201 l-169 -168 -30 13 c-40 18 -120 17 -154 -1 -33 -17 -81
-70 -81 -90 0 -26 -48 -52 -110 -58 -68 -8 -103 -23 -144 -64 -77 -75 -85
-189 -22 -286 119 -185 311 -241 426 -124 44 45 59 78 66 144 7 70 25 100 69
118 83 35 114 129 79 243 -5 19 17 45 159 187 140 140 170 165 198 168 28 3
34 7 32 25 -2 17 2 21 20 19 16 -1 22 3 22 18 0 13 7 20 20 20 14 0 20 7 20
22 0 11 3 25 8 29 15 16 6 41 -29 77 -35 35 -62 46 -78 30z m74 -80 c0 -6
-106 -112 -115 -115 -6 -2 -21 7 -34 19 l-24 22 62 60 61 61 25 -22 c14 -12
25 -23 25 -25z m-170 -128 c10 -12 -24 -50 -199 -225 -191 -191 -212 -210
-230 -199 -18 12 -3 29 192 225 117 117 215 213 218 213 4 1 12 -6 19 -14z
m-426 -304 c18 -7 16 -11 -20 -49 -21 -23 -47 -42 -56 -42 -49 0 -98 -50 -98
-99 0 -77 99 -130 156 -83 25 20 44 53 44 78 0 17 77 100 85 92 3 -3 8 -25 11
-50 9 -64 -14 -106 -72 -138 -55 -28 -84 -71 -84 -120 0 -109 -72 -192 -172
-199 -79 -5 -211 86 -258 179 -69 135 0 264 147 277 76 7 110 27 141 85 36 67
109 95 176 69z m-34 -151 c11 -11 20 -29 20 -40 0 -11 -9 -29 -20 -40 -11 -11
-29 -20 -40 -20 -11 0 -29 9 -40 20 -11 11 -20 29 -20 40 0 11 9 29 20 40 11
11 29 20 40 20 11 0 29 -9 40 -20z"/>
<path d="M585 829 c-8 -12 6 -28 90 -111 57 -56 74 -65 82 -41 4 11 -143 163
-158 163 -4 0 -11 -5 -14 -11z"/>
</g>
</svg>
